<?xml version="1.0" standalone="no"?>
<!DOCTYPE svg PUBLIC "-//W3C//DTD SVG 20010904//EN"
 "http://www.w3.org/TR/2001/REC-SVG-20010904/DTD/svg10.dtd">
<svg version="1.0" xmlns="http://www.w3.org/2000/svg"
 width="200.000000pt" height="200.000000pt" viewBox="0 0 200.000000 200.000000"
 preserveAspectRatio="xMidYMid meet">

<g transform="translate(0.000000,200.000000) scale(0.100000,-0.100000)"
fill="#000000" stroke="none">
<path d="M982 1508 c-7 -7 -12 -25 -12 -40 0 -28 -1 -28 -24 -13 -25 17 -56
11 -56 -11 0 -8 18 -26 40 -40 39 -26 40 -28 40 -85 0 -33 -3 -59 -7 -59 -3 0
-26 11 -49 25 -43 25 -46 32 -57 115 -1 8 -11 15 -22 15 -15 0 -21 -8 -23 -32
-3 -33 -15 -42 -27 -23 -10 16 -45 12 -52 -6 -4 -10 4 -24 22 -38 l27 -22 -26
-12 c-32 -14 -36 -52 -6 -52 10 0 35 8 55 17 35 17 37 17 81 -7 25 -14 48 -28
50 -32 2 -3 -19 -20 -47 -36 l-52 -30 -31 19 c-32 20 -71 25 -80 11 -8 -13 23
-52 40 -52 22 0 16 -16 -11 -28 -31 -14 -34 -52 -4 -52 11 0 29 5 40 10 17 9
19 7 19 -18 0 -36 21 -57 38 -40 7 7 12 23 12 37 0 50 13 72 55 96 23 14 45
25 48 25 4 0 7 -26 7 -59 0 -57 -1 -59 -40 -85 -41 -27 -51 -52 -25 -62 8 -4
26 1 40 10 25 16 25 16 25 -13 0 -15 7 -34 15 -41 21 -18 45 4 45 41 0 29 0
29 25 13 14 -9 32 -14 40 -10 26 10 16 35 -25 62 -39 26 -40 28 -40 85 0 33 3
59 6 59 3 0 25 -11 49 -25 42 -25 55 -46 55 -96 0 -14 5 -30 12 -37 17 -17 38
4 38 40 0 25 2 27 19 18 11 -5 29 -10 40 -10 30 0 27 38 -4 52 -25 11 -34 28
-15 28 16 0 51 40 45 50 -10 16 -47 11 -81 -9 l-31 -19 -52 30 c-28 16 -49 33
-47 36 2 4 25 18 50 32 44 24 46 24 81 7 20 -9 45 -17 55 -17 30 0 26 38 -6
52 l-26 12 27 22 c18 14 26 28 22 38 -7 18 -42 22 -52 6 -12 -19 -24 -10 -27
23 -2 24 -8 32 -23 32 -11 0 -21 -7 -22 -15 -11 -83 -14 -90 -57 -115 -23 -14
-46 -25 -49 -25 -4 0 -7 26 -7 59 0 57 1 59 40 85 22 14 40 32 40 40 0 22 -31
28 -56 11 -23 -15 -24 -15 -24 13 0 26 -15 52 -30 52 -3 0 -11 -5 -18 -12z"/>
<path d="M547 1163 c-4 -3 -7 -69 -7 -147 l0 -140 -28 27 -28 27 -22 -23 -22
-23 69 -68 69 -68 66 62 c36 35 66 68 66 75 0 7 -9 20 -20 30 -20 18 -21 18
-50 -10 l-30 -29 0 147 0 147 -28 0 c-16 0 -32 -3 -35 -7z"/>
<path d="M1390 1024 l0 -148 -30 29 c-29 28 -30 28 -50 10 -11 -10 -20 -23
-20 -29 0 -11 64 -76 116 -119 19 -16 22 -14 87 51 l68 68 -24 22 -23 21 -27
-24 -26 -25 -3 142 -3 143 -32 3 -33 3 0 -147z"/>
<path d="M713 758 c-78 -110 -86 -181 -22 -213 42 -22 83 -18 118 11 55 46 37
118 -59 237 -4 4 -20 -12 -37 -35z"/>
<path d="M1223 758 c-74 -104 -83 -160 -32 -202 35 -29 76 -33 118 -11 32 16
41 33 41 78 0 30 -37 105 -78 155 l-18 23 -31 -43z"/>
<path d="M962 735 c-102 -139 -109 -235 -22 -280 40 -21 89 -19 127 5 74 45
72 122 -8 240 -29 44 -56 80 -59 80 -3 -1 -20 -21 -38 -45z"/>
</g>
</svg>
