<?xml version="1.0" standalone="no"?>
<!DOCTYPE svg PUBLIC "-//W3C//DTD SVG 20010904//EN"
 "http://www.w3.org/TR/2001/REC-SVG-20010904/DTD/svg10.dtd">
<svg version="1.0" xmlns="http://www.w3.org/2000/svg"
 width="229.000000pt" height="230.000000pt" viewBox="0 0 229.000000 230.000000"
 preserveAspectRatio="xMidYMid meet">

<g transform="translate(0.000000,230.000000) scale(0.100000,-0.100000)"
fill="#000000" stroke="none">
<path d="M253 2173 c-42 -8 -118 -88 -141 -148 -22 -56 -22 -61 -22 -878 0
-934 -3 -892 79 -973 78 -77 38 -74 971 -74 710 0 833 2 876 15 58 18 91 44
130 104 l29 45 0 880 0 881 -30 45 c-17 24 -50 58 -73 75 l-44 30 -876 1
c-483 1 -887 -1 -899 -3z m1764 -89 c15 -10 39 -31 53 -48 l25 -30 3 -857 2
-857 -32 -43 c-19 -24 -48 -48 -68 -55 -48 -17 -1660 -20 -1711 -3 -19 7 -45
21 -58 33 -52 47 -51 23 -51 922 0 935 -4 877 72 927 l42 27 847 0 c769 0 850
-2 876 -16z"/>
<path d="M998 1919 c-10 -5 -23 -30 -29 -54 -6 -25 -14 -45 -18 -45 -3 0 -15
17 -26 38 -24 44 -67 56 -85 23 -8 -17 -6 -28 15 -61 14 -22 25 -41 25 -42 0
-2 -23 -1 -50 0 -57 4 -83 -10 -78 -42 3 -22 54 -40 141 -51 47 -6 49 -8 94
-78 25 -40 54 -84 64 -99 10 -15 19 -30 19 -33 0 -3 -56 -5 -124 -5 l-123 0
-59 65 c-61 67 -95 82 -112 48 -12 -24 -5 -42 31 -80 l31 -33 -52 0 c-46 0
-54 -3 -64 -25 -15 -33 7 -57 54 -59 41 -2 46 -11 21 -40 -31 -36 -34 -55 -13
-76 27 -27 42 -18 110 59 l52 61 114 0 c71 0 114 -4 114 -10 0 -10 -24 -51
-87 -146 -32 -47 -37 -51 -96 -63 -117 -23 -122 -25 -125 -51 -6 -36 19 -49
75 -39 25 5 48 7 50 5 3 -2 -8 -23 -23 -46 -31 -46 -26 -72 16 -78 24 -4 69
40 70 68 0 13 1 13 10 0 6 -8 15 -31 20 -51 11 -41 32 -54 61 -39 24 14 24 34
-2 123 l-22 72 38 60 c21 33 53 84 73 112 l35 53 40 -68 c22 -37 43 -69 47
-72 12 -10 50 -81 50 -94 0 -7 -9 -42 -20 -76 -11 -34 -20 -71 -20 -81 0 -10
9 -23 20 -29 33 -18 58 3 66 55 3 25 9 45 13 45 3 0 16 -18 29 -40 25 -44 58
-53 83 -24 11 13 9 23 -15 65 -15 27 -24 49 -19 49 4 -1 27 -5 50 -9 62 -12
108 26 70 58 -8 6 -53 19 -102 28 -97 19 -80 3 -170 153 -16 27 -33 50 -37 50
-5 0 -8 5 -8 10 0 6 46 10 119 10 l119 0 59 -65 c44 -50 64 -65 85 -65 21 0
29 6 34 25 5 20 -1 32 -25 57 -17 17 -31 35 -31 39 0 4 19 7 42 7 32 1 48 7
61 23 16 20 16 23 1 40 -10 12 -34 19 -65 21 l-49 3 35 38 c19 21 35 44 35 52
0 17 -27 45 -43 45 -7 0 -41 -32 -77 -70 l-65 -71 -123 3 -122 3 34 52 c19 29
47 75 63 103 27 48 29 49 83 55 30 4 73 12 95 18 35 11 40 16 40 42 l0 30 -62
0 c-35 0 -63 1 -63 3 0 2 9 17 21 33 29 41 23 83 -13 87 -23 3 -32 -4 -55 -42
l-27 -45 -16 51 c-19 64 -42 81 -71 52 -20 -20 -20 -22 -4 -80 9 -32 21 -71
27 -86 8 -23 5 -33 -20 -70 -17 -24 -46 -70 -65 -102 l-35 -58 -66 101 -65
100 24 82 c23 79 23 106 1 121 -14 10 -17 9 -38 -3z"/>
<path d="M1122 927 c-13 -36 -51 -111 -85 -167 -94 -155 -96 -160 -96 -220 -1
-68 27 -121 87 -167 39 -29 50 -33 108 -33 109 0 173 49 205 157 14 49 0 113
-35 166 -83 122 -149 251 -158 310 -2 10 -13 -11 -26 -46z"/>
</g>
</svg>
