<?xml version="1.0" standalone="no"?>
<!DOCTYPE svg PUBLIC "-//W3C//DTD SVG 20010904//EN"
 "http://www.w3.org/TR/2001/REC-SVG-20010904/DTD/svg10.dtd">
<svg version="1.0" xmlns="http://www.w3.org/2000/svg"
 width="239.000000pt" height="228.000000pt" viewBox="0 0 239.000000 228.000000"
 preserveAspectRatio="xMidYMid meet">

<g transform="translate(0.000000,228.000000) scale(0.100000,-0.100000)"
fill="#000000" stroke="none">
<path d="M305 2143 c-35 -7 -98 -57 -130 -102 l-30 -43 0 -893 0 -893 41 -48
c22 -27 63 -60 90 -74 l49 -25 855 0 855 0 54 30 c64 35 95 73 121 149 19 53
20 86 20 860 0 775 -1 806 -20 867 -22 70 -54 112 -115 149 l-40 25 -865 1
c-476 1 -874 0 -885 -3z m1749 -96 c22 -12 49 -35 60 -50 21 -28 21 -31 21
-887 0 -855 0 -859 -21 -887 -11 -15 -36 -38 -54 -51 l-33 -22 -844 0 c-826 0
-845 0 -883 20 -26 13 -47 34 -60 60 -20 38 -20 57 -20 887 l0 848 31 38 c57
69 7 65 929 66 l835 1 39 -23z"/>
<path d="M407 1893 c-4 -3 -7 -18 -7 -33 0 -18 12 -36 42 -60 23 -19 80 -68
125 -107 46 -40 90 -73 97 -73 12 0 42 22 198 143 27 20 52 37 57 37 5 0 58
-38 118 -85 77 -60 116 -85 136 -85 21 0 58 22 133 80 57 45 111 83 119 86 8
4 61 -29 128 -79 63 -47 123 -88 135 -91 20 -7 54 18 161 119 25 24 58 53 74
65 28 23 35 58 15 78 -22 22 -42 12 -113 -54 -38 -35 -84 -76 -102 -90 l-32
-26 -116 86 c-121 90 -156 103 -192 70 -35 -31 -168 -133 -189 -145 -19 -10
-29 -6 -80 32 -33 23 -81 62 -109 86 -67 58 -100 58 -169 0 -59 -50 -163 -127
-171 -127 -3 0 -20 13 -38 29 -163 146 -197 168 -220 144z"/>
<path d="M407 1623 c-4 -3 -7 -16 -7 -29 0 -16 28 -46 98 -105 53 -46 108 -94
121 -106 13 -13 31 -23 41 -23 15 0 87 42 100 59 3 3 40 32 83 64 53 40 82 55
90 49 7 -5 56 -43 109 -85 117 -93 139 -97 214 -40 27 20 51 40 54 43 3 3 28
22 55 41 28 18 53 38 56 43 8 10 108 -56 215 -143 19 -15 52 -31 66 -31 7 0
29 15 48 33 20 17 73 65 118 106 68 61 82 79 80 100 -2 21 -9 26 -33 28 -25 2
-44 -10 -120 -82 -49 -47 -94 -85 -100 -85 -7 0 -61 36 -121 80 -123 90 -148
97 -211 54 -21 -14 -40 -29 -43 -33 -10 -15 -134 -101 -146 -101 -12 0 -131
84 -149 105 -25 29 -76 55 -108 55 -27 0 -48 -10 -87 -42 -82 -67 -152 -118
-162 -118 -8 0 -102 74 -128 100 -58 58 -113 84 -133 63z"/>
</g>
</svg>
