<?xml version="1.0" standalone="no"?>
<!DOCTYPE svg PUBLIC "-//W3C//DTD SVG 20010904//EN"
 "http://www.w3.org/TR/2001/REC-SVG-20010904/DTD/svg10.dtd">
<svg version="1.0" xmlns="http://www.w3.org/2000/svg"
 width="232.000000pt" height="233.000000pt" viewBox="0 0 232.000000 233.000000"
 preserveAspectRatio="xMidYMid meet">

<g transform="translate(0.000000,233.000000) scale(0.100000,-0.100000)"
fill="#000000" stroke="none">
<path d="M291 2188 c-50 -14 -135 -105 -149 -159 -8 -31 -11 -292 -11 -871 0
-686 2 -835 14 -874 19 -63 83 -128 153 -154 51 -19 79 -20 877 -20 807 0 825
0 879 21 74 27 137 97 154 169 9 38 12 269 12 864 0 927 4 883 -79 966 -30 30
-63 53 -87 59 -51 14 -1714 14 -1763 -1z m1746 -83 c45 -19 80 -59 93 -107 7
-24 9 -330 8 -860 -3 -802 -3 -824 -23 -857 -11 -19 -33 -43 -48 -55 -28 -21
-32 -21 -886 -24 l-858 -2 -33 22 c-18 13 -43 36 -54 51 -21 28 -21 34 -24
855 -2 455 0 842 3 860 7 39 58 100 100 118 24 11 196 13 858 14 715 0 833 -2
864 -15z"/>
<path d="M1014 1885 c-341 -83 -567 -356 -580 -700 -4 -117 10 -196 57 -314
72 -180 245 -344 434 -409 86 -29 138 -37 255 -36 130 0 208 16 312 64 161 76
309 232 367 390 39 107 53 182 52 284 -3 228 -99 433 -268 571 -71 58 -217
129 -306 149 -81 19 -249 19 -323 1z m305 -79 c199 -43 393 -211 469 -406 36
-93 45 -141 46 -235 2 -303 -216 -577 -515 -649 -231 -56 -506 40 -659 230
-127 159 -178 381 -130 567 52 201 207 382 395 462 103 43 272 57 394 31z"/>
<path d="M1068 1575 c-37 -34 -40 -54 -36 -184 3 -105 4 -112 31 -138 25 -26
33 -28 107 -28 73 0 81 2 109 29 l31 30 0 129 0 129 -29 29 c-28 27 -35 29
-108 29 -70 0 -81 -3 -105 -25z m150 -61 c20 -14 22 -24 22 -98 0 -105 -9
-118 -75 -114 l-50 3 -3 99 c-2 64 1 103 9 112 15 19 69 18 97 -2z"/>
<path d="M856 1118 c-38 -24 -84 -57 -103 -74 -29 -27 -33 -38 -33 -80 0 -41
6 -57 38 -99 59 -78 108 -81 216 -12 28 19 64 41 79 51 37 23 60 78 51 120 -3
17 -20 50 -36 72 -56 78 -111 84 -212 22z m158 -89 c13 -21 14 -28 3 -42 -12
-16 -146 -107 -157 -107 -11 0 -27 16 -49 48 -29 41 -24 48 78 113 81 52 84
51 125 -12z"/>
<path d="M1333 1151 c-11 -5 -37 -31 -57 -57 -28 -37 -36 -56 -36 -89 0 -54
19 -78 114 -143 100 -70 153 -79 202 -35 29 26 74 106 74 132 0 30 -24 73 -50
91 -13 8 -28 20 -34 25 -78 68 -161 98 -213 76z m154 -133 c28 -21 54 -42 58
-48 9 -15 -32 -78 -56 -85 -13 -4 -36 5 -72 31 -110 79 -116 91 -66 142 35 36
29 37 136 -40z"/>
</g>
</svg>
