<?xml version="1.0" standalone="no"?>
<!DOCTYPE svg PUBLIC "-//W3C//DTD SVG 20010904//EN"
 "http://www.w3.org/TR/2001/REC-SVG-20010904/DTD/svg10.dtd">
<svg version="1.0" xmlns="http://www.w3.org/2000/svg"
 width="227.000000pt" height="225.000000pt" viewBox="0 0 227.000000 225.000000"
 preserveAspectRatio="xMidYMid meet">

<g transform="translate(0.000000,225.000000) scale(0.100000,-0.100000)"
fill="#000000" stroke="none">
<path d="M235 2120 c-22 -12 -54 -37 -72 -57 -65 -72 -63 -40 -63 -955 0 -627
3 -839 12 -875 18 -67 95 -145 160 -161 34 -9 272 -12 876 -12 909 0 879 -2
954 60 20 17 47 51 60 77 l23 48 3 825 c2 609 0 839 -9 880 -15 72 -49 122
-114 165 -29 20 -49 20 -910 23 -873 2 -880 2 -920 -18z m1781 -75 c40 -19 63
-45 80 -92 17 -50 21 -1624 3 -1688 -13 -47 -52 -92 -96 -111 -27 -12 -180
-14 -861 -14 l-829 0 -43 23 c-30 16 -51 37 -67 67 l-23 44 2 841 3 842 29 37
c57 75 4 71 936 68 704 -2 840 -4 866 -17z"/>
<path d="M365 1871 c-3 -10 -3 -26 1 -35 6 -15 69 -16 778 -14 l771 3 0 30 0
30 -772 3 c-745 2 -772 1 -778 -17z"/>
<path d="M364 365 c-14 -57 -49 -55 776 -55 825 0 790 -2 776 55 l-6 25 -770
0 -770 0 -6 -25z"/>
</g>
</svg>
